<?xml version="1.0" ?><svg data-name="Layer 1" id="Layer_1" viewBox="0 0 64 64" xmlns="http://www.w3.org/2000/svg"><defs><style>.cls-1{fill:#efcc00;}.cls-2,.cls-4,.cls-5{fill:none;stroke-linecap:round;stroke-miterlimit:10;stroke-width:3px;}.cls-2{stroke:#efcc00;}.cls-3{fill:#e0e0e0;}.cls-4{stroke:#b9c1c6;}.cls-5{stroke:#a5a9aa;}</style></defs><title/><circle class="cls-1" cx="32" cy="32" r="17"/><line class="cls-2" x1="32" x2="32" y1="5" y2="11"/><line class="cls-2" x1="59" x2="53" y1="32" y2="32"/><line class="cls-2" x1="11" x2="5" y1="32" y2="32"/><line class="cls-2" x1="51.09" x2="46.85" y1="12.91" y2="17.15"/><line class="cls-2" x1="17.15" x2="12.91" y1="17.15" y2="12.91"/><path class="cls-3" d="M40.25,46.25a20.18,20.18,0,0,1-16-9.75H15.62A17,17,0,0,0,41.1,46.34C40.81,46.31,40.54,46.27,40.25,46.25Z"/><line class="cls-4" x1="25.5" x2="13.83" y1="36.5" y2="36.5"/><line class="cls-4" x1="7.54" x2="19.22" y1="41.5" y2="41.5"/><line class="cls-4" x1="4.85" x2="53.86" y1="46.5" y2="46.5"/><line class="cls-5" x1="34.49" x2="55.65" y1="51.5" y2="51.5"/><line class="cls-4" x1="4.85" x2="27.3" y1="51.5" y2="51.5"/><line class="cls-5" x1="26.4" x2="45.75" y1="56.5" y2="56.5"/><line class="cls-5" x1="6.64" x2="20.12" y1="56.5" y2="56.5"/><line class="cls-4" x1="24.61" x2="30.89" y1="41.5" y2="41.5"/></svg>