<?xml version="1.0" ?><svg data-name="Layer 1" id="Layer_1" viewBox="0 0 64 64" xmlns="http://www.w3.org/2000/svg" xmlns:xlink="http://www.w3.org/1999/xlink"><defs><style>.cls-1{fill:#efcc00;}.cls-2{fill:url(#linear-gradient);}.cls-3{fill:url(#linear-gradient-2);}.cls-4{fill:#0baeff;}</style><linearGradient gradientTransform="matrix(-1, 0, 0, 1, 65.97, 0)" gradientUnits="userSpaceOnUse" id="linear-gradient" x1="46.72" x2="25.63" y1="52.39" y2="25.08"><stop offset="0" stop-color="#f2f2f2"/><stop offset="1" stop-color="#cfcfcf"/></linearGradient><linearGradient gradientTransform="matrix(0, -1, -1, 0, 160.42, 26.95)" gradientUnits="userSpaceOnUse" id="linear-gradient-2" x1="-14.23" x2="-2.62" y1="108.15" y2="125.8"><stop offset="0.02" stop-color="#fff"/><stop offset="1" stop-color="#fff" stop-opacity="0"/></linearGradient></defs><title/><path class="cls-1" d="M50,20.71A13.88,13.88,0,0,1,37.86,2.77.6.6,0,0,0,37,2.08,13.88,13.88,0,1,0,55.92,21a.6.6,0,0,0-.69-.89A13.91,13.91,0,0,1,50,20.71Z"/><path class="cls-2" d="M23.66,15.9a17.49,17.49,0,0,1,15.47,9.32A13.75,13.75,0,1,1,46,50.84l-22.39.06a17.5,17.5,0,0,1,0-35Z"/><circle class="cls-3" cx="46.05" cy="37.09" r="13.75" transform="translate(-2.06 71.46) rotate(-74.39)"/><path class="cls-4" d="M36.22,59.28a3.72,3.72,0,1,1-7.44,0c0-3.26,3-6.28,3.72-6.28S36.22,56,36.22,59.28Z"/></svg>